<svg width="79.184" height="54.157" viewBox="0 0 20.951 14.329" xml:space="preserve" xmlns="http://www.w3.org/2000/svg">
  <path style="fill:#fff" d="M19.217 1.324a.453.453 0 0 0-.111.006C1.569 4.192 12.846 2.35 1.698 4.166a.448.448 0 0 0-.375.44v4.353a.45.45 0 0 0 .389.444c1.24.164 2.48.33 3.72.496a.265.265 0 0 0 .178-.047l.043.064.023.082c.019.064.06.118.117.152l-.047-.03-.01.212v.03l.053.964-.027.485c0 .015 0 .03.002.046l.031.26.002.268a.265.265 0 0 0 .204.256l.164.039a.265.265 0 0 0 .182-.024l.187-.097.3-.092a.265.265 0 0 0 .186-.225l.002.014.004.014-.01.025a.265.265 0 0 0-.015.102l.01.216a.265.265 0 0 0 .197.246l.533.14a.267.267 0 0 0 .072.007l.436-.01a.265.265 0 0 0 .256-.303l-.01-.07a.265.265 0 0 0-.168-.207L8 12.289l-.038-.041-.037-.05-.166-.803.01-.18a.265.265 0 0 0-.02-.12l-.07-.153-.187-.618.006.044-.164.04a.265.265 0 0 0 .134-.084l.087-.098a.265.265 0 0 0 .025-.04l11.54 1.545a.45.45 0 0 0 .507-.44V1.77a.45.45 0 0 0-.41-.446zm-12.52 9.932.108.176.121.443.01.031a.265.265 0 0 0-.133-.064l-.12-.016-.016-.498zM6.48 12.33a.272.272 0 0 0 .017.006l-.017-.002z"/>
  <path style="fill:#000" d="M19.196 1.589a.181.181 0 0 0-.045.002l-7.34 1.197-4.608.75-3.16.514-2.303.375a.181.181 0 0 0-.152.179V8.96a.181.181 0 0 0 .158.18l2.303.307 1.417.19-.04-.06-.205-.298.007-.039-.973-.13V4.386l2.795-.455v4.195l.227.07.13.187.008.027V3.872l4.243-.693V10.1L7.66 9.563l-.002.002c0 .005-.007.023-.012.056a3.991 3.991 0 0 1-.053.244l.002.012.002.045 4.22.565 7.34.982a.181.181 0 0 0 .207-.18V1.77a.181.181 0 0 0-.167-.181zM19 1.985v9.099l-6.98-.935v-7.03Zm-3.559 1.334a3.883 3.883 0 0 0-.416.03c-.728.09-1.278.347-1.644.77h-.002c-.353.412-.522.955-.522 1.614v1.799c0 .65.17 1.183.524 1.58.364.41.914.646 1.642.717.767.074 1.398-.066 1.848-.45.46-.393.693-.992.693-1.754v-2.11c0-.771-.23-1.372-.693-1.759-.363-.308-.85-.448-1.43-.437zm-5.83.726c-.072 0-.15.004-.227.014l-1.429.18v4.908l.935.09V7.71l.508.013c.41.01.763-.115 1.012-.38.258-.276.381-.664.381-1.141v-.696c0-.49-.124-.88-.385-1.142a1.094 1.094 0 0 0-.795-.319zm-2.763.333-.885.11L5.57 5.63l-.386-1.044-.79.1.723 1.984-.791 2.125.773.075.41-1.127.165.448.157-.068.012-.088-.1-.277.065-.366.345-.195-.177-.474zm-2.958.067v4.616L1.952 8.8V4.761zm11.294.16c.304-.006.501.063.617.186l.002.003h.002c.137.138.229.434.229.896v1.8c0 .451-.09.744-.23.888-.133.138-.38.211-.76.188-.37-.023-.597-.119-.723-.266v-.002c-.12-.15-.2-.428-.2-.845V5.788c0-.428.078-.718.2-.872.128-.162.358-.27.727-.302.047-.005.092-.007.135-.008zm-11.573.18-1.502.188V8.58l1.502.147v-.873L2.72 7.8v-.734l.777-.004v-.867l-.777.031v-.49l.892-.08zm5.766.36c.138-.003.214.03.26.08.052.058.1.197.1.426v.457c0 .224-.047.364-.102.428-.057.064-.157.107-.332.11l-.413.003V5.188l.424-.039a.926.926 0 0 1 .063-.004zM6.483 7.408l-.176.006-.259.147-.03.173.091.252.039.126-.002.086-.06.022-.012.086-.308.135-.235.614-.03.165.143.207.252.375.035.122.088.054-.02.368.056.981-.029.498.034.275.002.283.162.038.209-.108.325-.1.012-.11-.24-.03-.108-.066-.021-.73.054-.126.095-.63.107.156.394.648.13.482.094.213v.158l.03.099-.04.109.01.217.533.138.434-.01-.01-.069-.386-.148-.089-.099-.079-.108-.183-.892.01-.213-.073-.168-.199-.65-.033-.215.07-.017.085-.1-.02-.055-.005-.093-.007-.044c.071-.242.056-.366.11-.437l-.268-.925-.053-.077-.455-.139-.033-.055.023-.04.061-.256-.033-.124.006-.122-.026-.124.015-.113zM5.92 9.089l.072.219.026.173-.095-.19-.054-.09.024-.076z"/>
</svg>
